<svg id="SvgjsSvg1006" width="288" height="288" xmlns="http://www.w3.org/2000/svg" version="1.1" xmlns:xlink="http://www.w3.org/1999/xlink" xmlns:svgjs="http://svgjs.com/svgjs"><defs id="SvgjsDefs1007"></defs><g id="SvgjsG1008"><svg xmlns="http://www.w3.org/2000/svg" viewBox="0 0 400 287.267" width="288" height="288"><path fill-rule="evenodd" d="M133.616 27.171 C 131.842 27.841,130.390 28.246,130.390 28.071 C 130.390 27.895,129.503 28.383,128.418 29.156 C 127.333 29.928,126.083 30.560,125.639 30.560 C 123.578 30.560,116.440 37.258,112.972 42.445 C 107.563 50.536,106.621 52.034,106.621 52.544 C 106.621 52.829,105.857 54.063,104.924 55.288 C 103.990 56.512,103.226 57.867,103.226 58.298 C 103.226 58.730,102.956 59.083,102.626 59.083 C 102.296 59.083,101.840 59.618,101.612 60.272 C 101.384 60.925,100.284 62.835,99.167 64.516 C 98.050 66.197,96.928 68.031,96.675 68.591 C 96.421 69.151,95.576 70.520,94.796 71.633 C 94.016 72.746,93.073 74.177,92.699 74.814 C 90.725 78.182,87.649 83.133,84.331 88.285 C 82.286 91.460,79.894 95.204,79.016 96.604 C 75.745 101.821,74.172 104.333,72.106 107.640 C 70.939 109.508,69.748 111.343,69.458 111.719 C 69.168 112.094,68.197 113.775,67.301 115.454 C 66.406 117.132,65.274 118.973,64.787 119.543 C 59.459 125.779,58.188 141.192,62.325 149.406 C 64.907 154.533,67.944 159.656,74.363 169.711 C 76.231 172.637,78.829 176.772,80.136 178.899 C 82.746 183.148,88.137 191.671,90.904 195.925 C 91.876 197.419,93.002 199.253,93.406 200.000 C 95.259 203.425,98.107 208.182,98.490 208.489 C 98.723 208.676,99.634 210.127,100.515 211.715 C 101.397 213.302,102.367 214.601,102.672 214.601 C 102.976 214.601,103.226 215.018,103.226 215.528 C 103.226 216.038,103.903 217.316,104.731 218.369 C 106.199 220.236,106.618 220.922,109.910 226.863 C 110.785 228.441,111.768 230.072,112.096 230.486 C 112.423 230.900,114.014 232.915,115.630 234.963 C 118.807 238.988,122.005 241.466,127.334 244.033 C 135.658 248.041,132.862 247.878,193.209 247.878 C 250.714 247.878,252.297 247.809,256.706 245.123 C 257.267 244.782,258.736 244.048,259.972 243.492 C 261.208 242.936,263.041 241.843,264.046 241.063 C 268.770 237.397,270.968 235.344,270.968 234.597 C 270.968 234.149,271.426 233.402,271.986 232.938 C 272.546 232.473,274.416 229.762,276.142 226.912 C 277.869 224.063,279.480 221.579,279.722 221.392 C 279.965 221.205,280.542 220.289,281.005 219.355 C 281.468 218.421,283.199 215.518,284.851 212.903 C 287.785 208.259,291.236 202.721,292.892 200.000 C 293.346 199.253,294.711 197.226,295.925 195.495 C 297.139 193.764,298.132 192.007,298.132 191.590 C 298.132 191.173,298.417 190.832,298.766 190.832 C 299.114 190.832,299.614 190.144,299.876 189.304 C 300.138 188.463,301.179 186.553,302.189 185.059 C 304.306 181.928,306.382 178.666,310.099 172.634 C 311.548 170.282,313.260 167.531,313.903 166.522 C 314.546 165.512,315.670 163.596,316.400 162.264 C 317.130 160.931,318.208 159.442,318.796 158.955 C 319.383 158.467,319.864 157.669,319.864 157.181 C 319.864 156.693,320.340 155.819,320.921 155.238 C 328.830 147.329,328.428 130.078,320.034 117.148 C 317.851 113.786,314.399 108.342,312.362 105.049 C 310.325 101.757,307.056 96.562,305.097 93.504 C 303.139 90.447,301.152 87.176,300.683 86.236 C 300.214 85.295,299.284 83.767,298.617 82.840 C 295.575 78.614,294.045 76.298,293.466 75.042 C 292.687 73.351,274.329 43.868,272.323 41.087 C 271.515 39.966,270.650 38.737,270.401 38.355 C 268.093 34.812,259.635 29.634,252.132 27.171 C 245.992 25.155,138.951 25.155,133.616 27.171 M198.669 79.151 C 203.739 80.470,207.131 83.467,207.131 86.629 C 207.131 88.936,204.903 92.360,203.403 92.360 C 202.901 92.360,202.388 92.618,202.264 92.934 C 202.139 93.249,201.121 93.941,200.000 94.471 L 197.963 95.435 198.193 128.363 C 198.320 146.473,198.681 161.559,198.994 161.888 C 199.792 162.723,241.659 161.074,247.538 159.975 C 248.285 159.836,250.970 159.499,253.505 159.227 C 261.764 158.342,262.400 154.845,255.295 149.373 C 252.652 147.337,248.585 144.143,246.258 142.275 C 243.930 140.407,239.956 137.351,237.425 135.484 C 229.244 129.446,229.548 129.847,230.231 125.976 C 230.560 124.109,231.149 120.441,231.538 117.827 C 231.927 115.212,232.424 112.432,232.643 111.649 C 232.958 110.524,232.604 110.044,230.958 109.362 C 221.045 105.256,227.893 93.781,240.068 94.097 C 254.890 94.481,260.330 106.313,247.435 110.121 C 245.115 110.806,244.346 111.399,244.061 112.720 C 243.858 113.661,243.106 116.858,242.389 119.824 C 240.694 126.842,240.660 126.614,243.736 128.825 C 245.194 129.873,248.705 132.640,251.539 134.975 C 254.374 137.309,257.001 139.219,257.379 139.219 C 257.756 139.219,258.065 139.512,258.065 139.870 C 258.065 140.548,264.076 144.327,264.454 143.886 C 267.498 140.335,269.046 128.353,266.460 128.353 C 263.834 128.353,262.187 122.715,263.865 119.470 C 268.513 110.483,292.020 113.514,292.020 123.101 C 292.020 125.241,285.780 130.541,283.192 130.599 C 281.489 130.637,280.477 131.832,278.590 136.032 C 277.383 138.719,276.396 141.176,276.398 141.493 C 276.399 141.810,275.964 143.033,275.430 144.210 C 274.301 146.698,270.949 155.172,269.347 159.593 C 268.737 161.273,268.012 162.963,267.735 163.347 C 266.871 164.548,256.220 167.876,251.432 168.441 C 248.917 168.738,244.720 169.290,242.105 169.667 C 231.944 171.135,156.703 171.285,146.010 169.860 C 142.462 169.387,137.267 168.745,134.465 168.435 C 131.664 168.124,128.455 167.531,127.334 167.118 C 126.214 166.705,123.475 165.785,121.249 165.074 L 117.200 163.781 114.597 157.442 C 113.166 153.956,111.797 150.645,111.556 150.085 C 111.314 149.525,109.690 145.399,107.947 140.917 L 104.778 132.767 100.366 130.624 C 94.826 127.932,92.772 125.508,93.296 122.280 C 93.649 120.103,96.429 116.683,98.094 116.378 C 98.489 116.306,100.149 115.762,101.783 115.169 C 109.704 112.297,122.125 117.011,122.210 122.920 C 122.237 124.788,119.001 128.676,116.851 129.358 C 115.389 129.822,115.452 130.164,118.072 135.995 C 119.310 138.752,125.815 154.270,127.007 157.309 C 127.406 158.330,128.347 158.866,130.172 159.115 C 144.484 161.062,152.685 161.747,165.794 162.089 C 174.248 162.310,182.282 162.280,183.648 162.024 L 186.132 161.558 185.935 156.021 L 185.739 150.484 178.947 146.202 C 169.398 140.181,159.801 134.297,157.680 133.164 C 156.690 132.635,154.041 130.945,151.794 129.408 C 149.547 127.872,146.729 126.211,145.532 125.717 C 143.633 124.933,143.306 124.417,142.960 121.662 C 142.742 119.926,142.269 117.401,141.910 116.050 C 141.550 114.700,141.256 112.976,141.256 112.219 C 141.256 111.245,140.452 110.522,138.498 109.740 C 126.316 104.866,133.515 92.609,147.776 93.940 C 160.049 95.086,165.240 106.017,155.101 109.363 C 152.671 110.165,152.670 110.167,153.132 113.317 C 153.958 118.949,156.113 121.306,165.025 126.327 C 166.333 127.064,168.524 128.356,169.895 129.198 C 171.266 130.041,175.246 132.487,178.740 134.635 C 187.412 139.966,186.757 140.715,186.760 125.467 C 186.761 118.277,186.958 108.564,187.197 103.882 L 187.631 95.370 184.854 94.118 C 177.070 90.608,176.542 84.298,183.701 80.340 C 187.840 78.052,192.898 77.650,198.669 79.151 M133.786 175.796 C 153.147 178.730,179.312 179.773,213.582 178.979 C 224.131 178.735,240.701 177.239,253.122 175.411 C 260.433 174.335,260.800 174.340,262.121 175.535 C 266.564 179.556,259.355 183.952,248.217 184.013 C 246.350 184.023,241.460 184.474,237.351 185.015 C 219.490 187.367,180.311 188.236,160.951 186.711 C 155.908 186.313,150.713 185.987,149.406 185.986 C 148.098 185.986,143.843 185.547,139.950 185.013 C 136.056 184.478,131.689 184.041,130.245 184.041 C 124.871 184.041,120.260 180.334,121.518 177.026 C 122.548 174.317,123.434 174.228,133.786 175.796 M143.973 203.056 C 143.973 204.177,144.221 205.093,144.525 205.093 C 144.829 205.093,145.955 204.177,147.029 203.056 C 148.102 201.935,149.595 201.019,150.345 201.019 C 151.552 201.019,151.461 201.275,149.563 203.233 L 147.417 205.448 149.812 207.987 C 152.187 210.504,152.193 210.526,150.517 210.526 C 149.502 210.526,148.267 209.816,147.429 208.751 C 145.856 206.752,143.973 206.967,143.973 209.147 C 143.973 210.074,143.527 210.526,142.615 210.526 C 141.386 210.526,141.256 210.074,141.256 205.772 C 141.256 201.471,141.386 201.019,142.615 201.019 C 143.671 201.019,143.973 201.471,143.973 203.056 M157.235 203.968 C 157.896 208.376,157.469 210.151,155.688 210.404 C 154.227 210.611,154.160 210.410,154.160 205.820 C 154.160 199.858,156.415 198.500,157.235 203.968 M164.936 203.396 C 166.383 204.703,167.759 205.772,167.994 205.772 C 168.229 205.772,168.421 204.703,168.421 203.396 C 168.421 201.471,168.680 201.019,169.779 201.019 C 171.008 201.019,171.138 201.471,171.138 205.772 C 171.138 211.456,170.094 211.978,166.384 208.149 C 165.117 206.842,163.834 205.772,163.534 205.772 C 163.234 205.772,162.988 206.842,162.988 208.149 C 162.988 210.074,162.729 210.526,161.630 210.526 C 160.401 210.526,160.272 210.074,160.272 205.772 C 160.272 200.131,160.944 199.789,164.936 203.396 M184.380 202.377 C 184.380 203.137,183.746 203.340,181.879 203.178 C 177.071 202.759,174.794 205.811,178.233 208.064 C 180.166 209.330,181.725 208.946,182.212 207.084 C 182.833 204.710,184.720 205.512,184.720 208.149 L 184.720 210.526 180.645 210.526 C 174.362 210.526,171.677 206.480,175.358 202.561 C 177.181 200.620,184.380 200.473,184.380 202.377 M196.265 201.698 C 196.265 202.071,195.883 202.416,195.416 202.463 C 194.354 202.570,192.121 202.818,191.002 202.954 C 189.100 203.183,190.350 204.391,193.373 205.245 C 196.752 206.199,197.758 207.708,196.238 209.540 C 195.165 210.833,187.177 210.960,187.610 209.677 C 187.774 209.192,189.034 208.829,190.553 208.829 C 193.882 208.829,194.625 207.677,191.685 207.075 C 187.862 206.294,186.251 203.834,188.251 201.834 C 189.233 200.852,196.265 200.733,196.265 201.698 M213.922 202.037 C 213.922 202.716,213.243 203.056,211.885 203.056 C 209.868 203.056,209.847 203.094,209.847 206.791 C 209.847 210.074,209.683 210.526,208.489 210.526 C 207.063 210.526,206.793 209.513,207.085 205.263 C 207.226 203.218,207.083 203.056,205.146 203.056 C 203.741 203.056,203.056 202.722,203.056 202.037 C 203.056 201.217,204.112 201.019,208.489 201.019 C 212.865 201.019,213.922 201.217,213.922 202.037 M224.788 202.089 C 224.788 202.940,224.129 203.118,221.562 202.960 C 219.090 202.808,218.336 202.995,218.336 203.758 C 218.336 204.444,219.234 204.819,221.222 204.963 C 222.810 205.078,224.109 205.442,224.109 205.772 C 224.109 206.103,222.810 206.467,221.222 206.582 C 219.202 206.728,218.336 207.097,218.336 207.810 C 218.336 208.370,218.783 208.730,219.330 208.610 C 220.909 208.264,224.788 209.165,224.788 209.878 C 224.788 210.235,222.723 210.526,220.200 210.526 L 215.612 210.526 215.448 205.772 L 215.283 201.019 220.036 201.019 C 223.908 201.019,224.788 201.217,224.788 202.089 M236.929 201.632 C 238.691 202.748,237.043 203.713,234.070 203.306 C 230.800 202.858,229.284 203.968,229.659 206.538 C 229.913 208.279,233.131 209.476,234.944 208.505 C 236.431 207.710,238.324 208.807,237.275 209.856 C 235.730 211.401,228.881 210.371,227.699 208.417 C 224.801 203.625,231.871 198.428,236.929 201.632 M242.525 202.207 C 242.569 202.861,242.580 203.594,242.548 203.836 C 242.517 204.078,243.703 204.392,245.184 204.533 C 247.863 204.788,248.151 204.543,247.913 202.207 C 247.826 201.348,248.283 201.019,249.564 201.019 C 252.128 201.019,251.976 210.039,249.406 210.404 C 248.161 210.581,247.878 210.297,247.878 208.876 C 247.878 207.293,247.626 207.131,245.161 207.131 C 242.696 207.131,242.445 207.292,242.445 208.878 C 242.445 210.176,242.139 210.568,241.256 210.399 C 239.303 210.027,239.110 201.019,241.056 201.019 C 241.895 201.019,242.477 201.489,242.525 202.207 M150.585 217.790 C 150.769 218.347,149.954 218.560,147.995 218.469 C 144.662 218.314,143.523 219.759,146.471 220.401 C 151.097 221.409,152.530 223.119,150.473 225.176 C 149.028 226.621,141.935 226.518,141.935 225.052 C 141.935 224.177,142.395 224.044,144.221 224.386 C 146.572 224.827,148.727 224.371,148.727 223.432 C 148.727 223.140,147.581 222.687,146.180 222.426 C 139.490 221.175,140.145 216.577,146.975 216.846 C 148.860 216.920,150.434 217.332,150.585 217.790 M163.423 217.047 C 164.222 217.261,165.433 218.471,166.114 219.736 L 167.352 222.035 165.383 224.090 C 161.712 227.921,152.801 225.936,152.801 221.288 C 152.801 218.220,158.827 215.814,163.423 217.047 M171.951 220.204 L 172.156 223.769 175.042 223.978 C 180.087 224.343,178.816 226.146,173.514 226.146 L 169.100 226.146 169.100 221.392 C 169.100 215.057,171.595 214.017,171.951 220.204 M182.683 220.374 L 182.683 224.109 184.976 224.109 C 187.901 224.109,188.962 222.804,188.680 219.559 C 188.485 217.318,188.657 216.949,189.983 216.761 C 192.195 216.447,192.232 222.234,190.034 224.574 C 185.305 229.608,179.178 225.328,179.889 217.487 C 180.177 214.311,182.683 216.900,182.683 220.374 M203.056 217.317 C 203.056 217.963,202.847 218.051,200.849 218.251 C 200.305 218.306,199.927 219.738,199.796 222.241 C 199.605 225.909,199.489 226.146,197.880 226.146 C 196.225 226.146,196.173 226.012,196.351 222.241 C 196.530 218.451,196.481 218.330,194.702 218.121 C 190.839 217.668,193.104 216.638,197.963 216.638 C 200.905 216.638,203.056 216.925,203.056 217.317 M208.489 221.392 C 208.489 226.010,208.440 226.146,206.791 226.146 C 205.142 226.146,205.093 226.010,205.093 221.392 C 205.093 216.774,205.142 216.638,206.791 216.638 C 208.440 216.638,208.489 216.774,208.489 221.392 M222.803 218.623 C 225.285 221.106,225.286 221.945,222.811 224.281 C 219.280 227.614,210.526 225.950,210.526 221.945 C 210.526 220.555,212.624 217.400,213.743 217.108 C 217.567 216.111,220.837 216.658,222.803 218.623 M231.781 219.015 C 233.127 220.323,234.487 221.392,234.805 221.392 C 235.122 221.392,235.256 220.323,235.103 219.015 C 234.848 216.826,234.968 216.638,236.629 216.638 C 238.422 216.638,238.431 216.664,238.231 221.215 C 237.956 227.499,236.734 227.756,231.744 222.581 C 230.059 220.833,229.542 221.112,229.542 223.769 C 229.542 225.693,229.283 226.146,228.183 226.146 C 226.954 226.146,226.825 225.693,226.825 221.392 C 226.825 215.694,227.853 215.201,231.781 219.015 M249.753 217.450 C 249.551 218.046,248.506 218.259,246.565 218.102 C 242.743 217.792,242.730 220.121,246.550 220.742 C 253.425 221.859,251.570 226.146,244.212 226.146 C 241.018 226.146,240.326 225.791,240.852 224.421 C 241.105 223.759,241.644 223.675,242.803 224.116 C 244.335 224.698,247.002 224.532,247.724 223.809 C 248.121 223.413,244.836 222.071,243.468 222.071 C 241.174 222.071,239.823 219.357,241.356 217.825 C 242.639 216.541,250.175 216.204,249.753 217.450 M157.668 219.081 C 154.421 221.355,157.575 224.933,161.874 223.854 C 164.036 223.311,164.324 220.839,162.425 219.121 C 160.868 217.711,159.638 217.701,157.668 219.081 M215.450 218.832 C 213.785 219.628,213.411 221.968,214.737 223.294 C 216.523 225.080,221.392 223.732,221.392 221.451 C 221.392 219.110,217.999 217.614,215.450 218.832 " fill="#34a853" class="svgShape color000000-0 selectable"></path></svg></g></svg>